<svg xmlns="http://www.w3.org/2000/svg" xmlns:xlink="http://www.w3.org/1999/xlink" width="69" height="70" viewBox="0 0 69 70"><defs><path id="52aha" d="M990.675 352.857L961.86 297.86l-28.814 54.997z"/><path id="52ahb" d="M961.5 285c18.502 0 33.5 14.87 33.5 33.214s-14.998 33.215-33.5 33.215c-18.502 0-33.5-14.871-33.5-33.215S942.998 285 961.5 285z"/><path id="52ahe" d="M961.86 347.857c1.99 0 3.602 1.599 3.602 3.572 0 1.972-1.612 3.57-3.602 3.57-1.99 0-3.602-1.598-3.602-3.57 0-1.973 1.613-3.572 3.602-3.572z"/><path id="52ahf" d="M988.516 347.857c1.99 0 3.602 1.599 3.602 3.572 0 1.972-1.613 3.57-3.602 3.57-1.99 0-3.602-1.598-3.602-3.57 0-1.973 1.613-3.572 3.602-3.572z"/><path id="52ahg" d="M933.043 347.857c1.99 0 3.602 1.599 3.602 3.572 0 1.972-1.613 3.57-3.602 3.57-1.99 0-3.602-1.598-3.602-3.57 0-1.973 1.613-3.572 3.602-3.572z"/><clipPath id="52ahc"><use fill="#fff" xlink:href="#52aha"/></clipPath><clipPath id="52ahd"><use fill="#fff" xlink:href="#52ahb"/></clipPath></defs><g><g transform="translate(-927 -285)"><g><use fill="#fff" fill-opacity="0" stroke="#fff" stroke-miterlimit="50" stroke-width="4" clip-path="url(&quot;#52ahc&quot;)" xlink:href="#52aha"/></g><g><use fill="#fff" fill-opacity="0" stroke="#f6f7fc" stroke-miterlimit="50" stroke-width="4" clip-path="url(&quot;#52ahd&quot;)" xlink:href="#52ahb"/></g><g><use fill="#fff" xlink:href="#52ahe"/></g><g><use fill="#fff" xlink:href="#52ahf"/></g><g><use fill="#fff" xlink:href="#52ahg"/></g></g></g></svg>