<?xml version="1.0" standalone="no"?>
<!DOCTYPE svg PUBLIC "-//W3C//DTD SVG 20010904//EN"
 "http://www.w3.org/TR/2001/REC-SVG-20010904/DTD/svg10.dtd">
<svg version="1.0" xmlns="http://www.w3.org/2000/svg"
 width="72.000000pt" height="72.000000pt" viewBox="0 0 72.000000 72.000000"
 preserveAspectRatio="xMidYMid meet">
<metadata>
Created by potrace 1.11, written by Peter Selinger 2001-2013
</metadata>
<g transform="translate(0.000000,72.000000) scale(0.100000,-0.100000)"
fill="#000000" stroke="none">
<path d="M346 643 c-10 -10 -16 -13 -13 -7 3 6 0 11 -8 11 -8 0 -12 -4 -9 -9
3 -4 -4 -8 -15 -8 -13 0 -21 -7 -22 -17 0 -10 -3 -13 -5 -6 -7 16 -57 6 -68
-14 -7 -13 -10 -13 -17 -2 -7 11 -9 11 -9 1 0 -7 -14 -18 -31 -24 -16 -6 -28
-12 -26 -15 3 -2 -11 -21 -32 -41 -20 -21 -37 -44 -39 -52 -2 -8 -9 -18 -15
-22 -9 -6 -8 -8 2 -8 11 0 11 -3 1 -15 -6 -8 -9 -19 -5 -25 3 -5 0 -10 -7 -10
-9 0 -9 -3 2 -10 11 -7 11 -10 2 -10 -9 0 -10 -5 -4 -17 5 -10 7 -24 4 -32 -3
-10 0 -11 9 -5 11 6 12 5 2 -7 -10 -13 -9 -19 7 -36 10 -12 16 -23 13 -27 -3
-3 2 -8 11 -12 9 -3 16 -13 16 -21 0 -8 4 -11 10 -8 5 3 10 -1 10 -10 0 -9 4
-14 9 -11 5 3 11 -1 15 -9 3 -8 12 -15 21 -15 8 0 15 -5 15 -11 0 -5 5 -7 10
-4 6 3 10 1 10 -5 0 -6 4 -8 10 -5 5 3 10 1 10 -5 0 -6 5 -8 10 -5 5 3 10 1
10 -6 0 -7 3 -9 7 -6 3 4 13 1 21 -6 13 -9 14 -9 8 0 -4 7 -2 13 3 13 6 0 11
-4 11 -9 0 -4 10 -7 23 -7 12 1 26 0 31 -2 14 -8 104 -7 100 0 -3 4 11 10 30
14 20 3 40 12 46 19 6 8 19 11 27 8 9 -4 22 2 30 13 8 10 17 19 21 19 4 0 6 3
4 8 -1 4 1 6 5 6 20 -3 34 2 28 10 -3 6 4 15 15 21 11 6 18 15 15 21 -4 5 1 9
9 9 9 0 13 6 10 14 -3 7 1 20 8 27 21 23 16 149 -7 182 -35 50 -105 118 -115
112 -6 -3 -10 -1 -10 4 0 6 -7 11 -15 11 -8 0 -15 5 -15 11 0 5 -4 7 -10 4 -5
-3 -10 0 -10 7 0 10 -2 10 -9 -1 -6 -10 -10 -10 -16 -1 -4 6 -14 9 -22 6 -10
-4 -13 -2 -10 8 4 10 1 13 -9 9 -7 -3 -14 -10 -14 -16 0 -6 -3 -7 -6 -4 -4 4
-2 13 4 20 9 11 8 13 -6 12 -9 0 -23 -4 -30 -9 -11 -7 -16 -1 -13 17 2 11 -3
9 -23 -10z"/>
</g>
</svg>
